Coordinates
version=1
nRows=49
nColumns=12
inDegrees=yes

Units are S.I. units (second, meters, Newtons, ...)
Angles are in degrees

endheader
time	SC_y	SC_z	SC_x	AC_y	AC_z	AC_x	GH_y	GH_z	GH_yy	EL_x	PS_y
       0.0              -59.73          -1.01          4.873          40.59          7.784         -17.94          148.1          14.13          104.4          52.42          124.0
   0.01612              -59.72         -1.009          4.879          40.59          7.783         -17.94          148.1          14.14          104.4          52.42          124.0
   0.03224              -59.72         -1.008          4.885          40.59          7.782         -17.94          148.1          14.14          104.4          52.41          124.0
   0.04837              -59.71         -1.007          4.892           40.6          7.781         -17.94          148.1          14.15          104.4          52.41          124.0
   0.06449               -59.7         -1.005          4.899           40.6           7.78         -17.94          148.1          14.15          104.4           52.4          123.9
   0.08061              -59.69         -1.004          4.906           40.6          7.779         -17.94          148.1          14.16          104.4          52.39          123.9
   0.09673              -59.69         -1.002          4.914           40.6          7.777         -17.93          148.1          14.17          104.4          52.38          123.9
    0.1129              -59.68         -1.001          4.923           40.6          7.776         -17.93          148.1          14.17          104.4          52.38          123.9
     0.129              -59.67        -0.9991          4.932           40.6          7.774         -17.93          148.1          14.18          104.3          52.37          123.9
    0.1451              -59.66        -0.9972          4.942           40.6          7.773         -17.93          148.1          14.19          104.3          52.36          123.9
    0.1612              -59.65        -0.9952          4.953           40.6          7.771         -17.93          148.1           14.2          104.3          52.35          123.8
    0.1773              -59.64         -0.993          4.964           40.6          7.769         -17.92          148.1          14.21          104.3          52.34          123.8
    0.1935              -59.63        -0.9907          4.977           40.6          7.767         -17.92          148.1          14.22          104.3          52.33          123.8
    0.2096              -59.61        -0.9882           4.99          40.61          7.765         -17.92          148.1          14.23          104.3          52.32          123.8
    0.2257               -59.6        -0.9854          5.005          40.61          7.763         -17.92          148.0          14.24          104.3           52.3          123.7
    0.2418              -59.58        -0.9825           5.02          40.61           7.76         -17.91          148.0          14.26          104.3          52.29          123.7
     0.258              -59.57        -0.9793          5.037          40.61          7.757         -17.91          148.0          14.27          104.3          52.27          123.7
    0.2741              -59.55        -0.9758          5.056          40.61          7.754         -17.91          148.0          14.29          104.2          52.26          123.6
    0.2902              -59.53        -0.9719          5.076          40.61          7.751          -17.9          148.0           14.3          104.2          52.24          123.6
    0.3063              -59.51        -0.9677          5.098          40.62          7.748          -17.9          148.0          14.32          104.2          52.22          123.5
    0.3224              -59.49        -0.9631          5.123          40.62          7.744         -17.89          148.0          14.34          104.2           52.2          123.5
    0.3386              -59.46         -0.958           5.15          40.62          7.739         -17.89          148.0          14.37          104.2          52.17          123.4
    0.3547              -59.43        -0.9524          5.179          40.62          7.734         -17.88          148.0          14.39          104.1          52.15          123.4
    0.3708               -59.4        -0.9462          5.212          40.63          7.729         -17.88          147.9          14.42          104.1          52.12          123.3
    0.3869              -59.36        -0.9393          5.249          40.63          7.723         -17.87          147.9          14.45          104.1          52.08          123.2
    0.4031              -59.32        -0.9316           5.29          40.64          7.717         -17.86          147.9          14.48          104.1          52.05          123.1
    0.4192              -59.28         -0.923          5.335          40.64          7.709         -17.85          147.9          14.52          104.0          52.01          123.0
    0.4353              -59.23        -0.9133          5.387          40.65          7.701         -17.84          147.9          14.57          104.0          51.96          122.9
    0.4514              -59.18        -0.9024          5.445          40.65          7.692         -17.83          147.8          14.62          103.9          51.91          122.8
    0.4675              -59.11        -0.8899          5.511          40.66          7.681         -17.82          147.8          14.67          103.9          51.85          122.7
    0.4837              -59.04        -0.8757          5.586          40.67          7.669         -17.81          147.8          14.74          103.8          51.78          122.5
    0.4998              -58.96        -0.8594          5.672          40.67          7.655         -17.79          147.7          14.81          103.7           51.7          122.3
    0.5159              -58.86        -0.8406          5.772          40.68          7.639         -17.77          147.7          14.89          103.7          51.61          122.1
     0.532              -58.75        -0.8187          5.888           40.7           7.62         -17.75          147.6          14.99          103.6          51.51          121.9
    0.5482              -58.62        -0.7932          6.023          40.71          7.598         -17.72          147.6          15.11          103.5          51.39          121.6
    0.5643              -58.46         -0.763          6.183          40.73          7.572         -17.69          147.5          15.24          103.3          51.24          121.3
    0.5804              -58.28        -0.7272          6.373          40.75          7.541         -17.65          147.4          15.41          103.2          51.07          120.9
    0.5965              -58.06        -0.6842          6.601          40.77          7.505         -17.61          147.3           15.6          103.0          50.87          120.4
    0.6126              -57.79        -0.6322          6.876           40.8           7.46         -17.56          147.1          15.83          102.8          50.62          119.9
    0.6288              -57.47        -0.5687          7.213          40.83          7.406         -17.49          147.0          16.12          102.5          50.32          119.2
    0.6449              -57.07        -0.4904          7.628          40.87          7.338         -17.41          146.8          16.47          102.2          49.95          118.3
     0.661              -56.57        -0.3926          8.145          40.92          7.255         -17.32          146.5          16.91          101.7          49.48          117.2
    0.6771              -55.94        -0.2695          8.798          40.99          7.149         -17.19          146.2          17.47          101.2           48.9          115.9
    0.6933              -55.14         -0.113          9.627          41.07          7.015         -17.03          145.8          18.17          100.5          48.15          114.2
    0.7094              -54.12        0.08725          10.69          41.18          6.843         -16.83          145.3          19.07          99.69           47.2          112.0
    0.7255               -52.8         0.3443          12.05          41.32          6.623         -16.57          144.7          20.23          98.59          45.97          109.2
    0.7416              -51.13         0.6726          13.79           41.5          6.342         -16.24          143.8          21.71          97.18          44.41          105.6
    0.7577              -49.02          1.085          15.98          41.72          5.988         -15.82          142.8          23.57          95.41          42.45          101.1
    0.7739              -46.45          1.589          18.64          41.99          5.556         -15.31          141.5          25.84          93.26          40.05          95.55
